<?xml version="1.0" encoding="UTF-8"?>
<svg version="1.1" xmlns="http://www.w3.org/2000/svg" width="114" height="119">
<path d="M0 0 C5.05073893 5.33133554 7.55207967 11.15242633 7.8125 18.5 C7.42944456 26.17093072 5.07617852 30.90493375 -0.4375 36.1875 C-6.06776052 40.73541839 -11.55574156 42.7306145 -18.8125 42.375 C-26.5445725 41.24815533 -31.59985293 37.05003452 -36.5234375 31.21875 C-40.44736475 25.32036254 -40.47241151 19.2423687 -39.75 12.375 C-38.09227308 6.90898149 -35.03708216 3.12619689 -30.75 -0.625 C-30.13125 -1.181875 -29.5125 -1.73875 -28.875 -2.3125 C-18.65078007 -8.62745937 -9.42956209 -5.57201396 0 0 Z " fill="#F3F3F3" transform="translate(71.75,38.625)"/>
<path d="M0 0 C8.32819387 6.0074626 13.67019578 13.30448047 16.3125 23.3125 C17.69552677 34.86198674 15.91456015 44.63540546 9.125 54.125 C3.0286498 61.42234425 -6.12867815 67.14679002 -15.6875 68.3125 C-26.7463816 68.86544408 -36.14497666 66.17743818 -44.8125 59.1875 C-51.94276 52.64674968 -56.12719433 44.33904357 -57.0234375 34.69921875 C-57.15696913 22.05377331 -54.37224354 13.6035706 -45.6875 4.3125 C-33.18717661 -7.80984384 -14.54032068 -9.02926851 0 0 Z M-40.6875 9.3125 C-46.77005616 15.72635006 -49.77552649 22.37174897 -50.125 31.1875 C-49.88471016 39.83793415 -46.99811559 47.276259 -40.6875 53.3125 C-33.50354139 58.72649779 -26.19522386 61.62946676 -17.12109375 61.1875 C-9.48784934 60.0407215 -2.73324717 56.72981707 2.42578125 50.94140625 C8.34729495 42.88667643 10.39432576 35.25434178 9.3125 25.3125 C7.2997444 17.14095333 2.98446674 10.51750107 -3.9765625 5.7421875 C-16.46188254 -1.19410141 -29.8786523 0.11174829 -40.6875 9.3125 Z " fill="#E0E0E0" transform="translate(75.6875,25.6875)"/>
<path d="M0 0 C1.9375 0.3125 1.9375 0.3125 4 1 C4.33 1.99 4.66 2.98 5 4 C4.01 4 3.02 4 2 4 C2.33 4.99 2.66 5.98 3 7 C1.68 6.67 0.36 6.34 -1 6 C-0.67 4.02 -0.34 2.04 0 0 Z " fill="#F5F5F5" transform="translate(34,80)"/>
<path d="M0 0 C0.99 0 1.98 0 3 0 C2.43628586 3.26954202 1.50037734 4.82575883 -1 7 C-1.04254356 5.00045254 -1.04080783 2.99958364 -1 1 C-0.67 0.67 -0.34 0.34 0 0 Z " fill="#D4D4D4" transform="translate(84,74)"/>
<path d="M0 0 C0.66 0.33 1.32 0.66 2 1 C-0.31 3.31 -2.62 5.62 -5 8 C-5.66 7.67 -6.32 7.34 -7 7 C-4.66666667 4.66666667 -2.33333333 2.33333333 0 0 Z " fill="#C6C6C6" transform="translate(43,36)"/>
</svg>

